{"title":"The.Ranger.2018.WEB-DL.XviD.AC3-FGT","magnet":"magnet:?xt=urn:btih:4a1afeedc74bcc6dbed44405967463d3e7c1de86&dn=The.Ranger.2018.WEB-DL.XviD.AC3-FGT&tr=udp%3A%2F%2Ftracker.leechers-paradise.org%3A6969&tr=udp%3A%2F%2Fzer0day.ch%3A1337&tr=udp%3A%2F%2Fopen.demonii.com%3A1337&tr=udp%3A%2F%2Ftracker.coppersurfer.tk%3A6969&tr=udp%3A%2F%2Fexodus.desync.com%3A6969","uploader":"tobbeo","categoryP":"video","categoryS":"movies","size":"1319345445","seeders":"1","leechers":"11","description":"Teen punks, on the run from the cops and hiding out in the woods, come up against the local authority - an unhinged park ranger with an axe to grind.\r\n\r\nVideo\r\nID : 0\r\nFormat : MPEG-4 Visual\r\nFormat profile : Simple@L5\r\nFormat settings, BVOP : No\r\nFormat settings, QPel : No\r\nFormat settings, GMC : No warppoints\r\nFormat settings, Matrix : Default (H.263)\r\nCodec ID : XVID\r\nCodec ID/Hint : XviD\r\nDuration : 1 h 20 min\r\nBit rate : 1 795 kb/s\r\nWidth : 720 pixels\r\nHeight : 384 pixels\r\nDisplay aspect ratio : 1.85:1\r\nFrame rate : 23.976 (24000/1001) FPS\r\nColor space : YUV\r\nChroma subsampling : 4:2:0\r\nBit depth : 8 bits\r\nScan type : Progressive\r\nCompression mode : Lossy\r\nBits/(Pixel*Frame) : 0.271\r\nStream size : 1.01 GiB (90%)\r\nWriting library : Lavc58.1.100\r\n\r\nAudio\r\nID : 1\r\nFormat : MPEG Audio\r\nFormat version : Version 1\r\nFormat profile : Layer 3\r\nFormat settings : Joint stereo / MS Stereo\r\nCodec ID : 55\r\nCodec ID/Hint : MP3\r\nDuration : 1 h 20 min\r\nBit rate mode : Constant\r\nBit rate : 192 kb/s\r\nChannel(s) : 2 channels\r\nSampling rate : 48.0 kHz\r\nCompression mode : Lossy\r\nStream size : 110 MiB (10%)\r\nAlignment : Aligned on interleaves\r\nInterleave, duration : 24 ms (0.58 video frame)\r\nInterleave, preload duration : 504 ms\r\nWriting library : LAME","last_updated":"2018-11-07T12:13:14.581Z","parsed":{"xt":"urn:btih:4a1afeedc74bcc6dbed44405967463d3e7c1de86","dn":"The.Ranger.2018.WEB-DL.XviD.AC3-FGT","tr":["udp://exodus.desync.com:6969","udp://open.demonii.com:1337","udp://tracker.coppersurfer.tk:6969","udp://tracker.leechers-paradise.org:6969","udp://zer0day.ch:1337"],"infoHash":"4a1afeedc74bcc6dbed44405967463d3e7c1de86","infoHashBuffer":{"type":"Buffer","data":[74,26,254,237,199,75,204,109,190,212,68,5,150,116,99,211,231,193,222,134]},"name":"The.Ranger.2018.WEB-DL.XviD.AC3-FGT","announce":["udp://exodus.desync.com:6969","udp://open.demonii.com:1337","udp://tracker.coppersurfer.tk:6969","udp://tracker.leechers-paradise.org:6969","udp://zer0day.ch:1337"],"urlList":[]}}